<svg width="64" height="64" viewBox="0 0 64 64" fill="none" xmlns="http://www.w3.org/2000/svg">
<path d="M60.0008 36C59.9999 38.477 59.3418 40.9094 58.0937 43.049C56.8456 45.1886 55.0522 46.9587 52.8965 48.1788C50.7409 49.3988 48.3001 50.0251 45.8233 49.9937C43.3465 49.9623 40.9223 49.2743 38.7983 48H37.6883L39.9158 55.425C40.0054 55.7236 40.024 56.039 39.9701 56.3461C39.9161 56.6531 39.7911 56.9433 39.6051 57.1935C39.419 57.4437 39.1771 57.6469 38.8985 57.7869C38.62 57.9269 38.3125 57.9999 38.0008 58H26.0008C25.689 57.9999 25.3816 57.9269 25.103 57.7869C24.8245 57.6469 24.5825 57.4437 24.3965 57.1935C24.2105 56.9433 24.0855 56.6531 24.0315 56.3461C23.9776 56.039 23.9962 55.7236 24.0858 55.425L26.3133 48H25.2033C23.3535 49.1116 21.2717 49.7805 19.1206 49.9544C16.9695 50.1284 14.8072 49.8027 12.8028 49.0027C10.7984 48.2028 9.00612 46.9502 7.56587 45.343C6.12562 43.7358 5.07645 41.8173 4.5003 39.7375C3.92415 37.6577 3.83664 35.4729 4.24458 33.3536C4.65253 31.2344 5.54489 29.2382 6.85196 27.5209C8.15904 25.8036 9.84544 24.4117 11.7794 23.454C13.7134 22.4963 15.8427 21.9987 18.0008 22C18.1958 22 18.3883 22 18.5833 22C17.961 19.9106 17.8352 17.7046 18.2161 15.558C18.5969 13.4114 19.4738 11.3834 20.777 9.63553C22.0801 7.8877 23.7734 6.46836 25.722 5.49059C27.6706 4.51283 29.8206 4.00366 32.0008 4.00366C34.1809 4.00366 36.331 4.51283 38.2796 5.49059C40.2282 6.46836 41.9215 7.8877 43.2246 9.63553C44.5277 11.3834 45.4047 13.4114 45.7855 15.558C46.1664 17.7046 46.0406 19.9106 45.4183 22C45.6108 22 45.8058 22 46.0008 22C49.7126 22.004 53.2712 23.4802 55.8959 26.1049C58.5205 28.7295 59.9968 32.2882 60.0008 36Z" fill="#B26FE6"/>
</svg>
