<svg width="32" height="32" viewBox="0 0 32 32" fill="none" xmlns="http://www.w3.org/2000/svg">
<path d="M26.666 13.3334C26.666 11.4667 26.666 10.5334 26.302 9.82008C25.9827 9.19276 25.473 8.68261 24.846 8.36275C24.1327 8.00008 23.1993 8.00008 21.3327 8.00008H10.666C8.79935 8.00008 7.86602 8.00008 7.15268 8.36275C6.52515 8.68238 6.01498 9.19255 5.69535 9.82008C5.33268 10.5334 5.33268 11.4667 5.33268 13.3334M23.9993 8.00008C23.9993 5.48541 23.9993 4.22941 23.218 3.44808C22.4367 2.66675 21.1807 2.66675 18.666 2.66675H13.3327C10.818 2.66675 9.56202 2.66675 8.78068 3.44808C7.99935 4.22941 7.99935 5.48541 7.99935 8.00008M2.66602 21.3334C2.66602 18.2147 2.66602 16.6561 3.38068 15.5174C3.75396 14.9239 4.25618 14.4222 4.85002 14.0494C5.98868 13.3334 7.54602 13.3334 10.666 13.3334H21.3327C24.4513 13.3334 26.01 13.3334 27.1487 14.0494C27.7424 14.4218 28.2446 14.9231 28.618 15.5161C29.3327 16.6574 29.3327 18.2161 29.3327 21.3334C29.3327 24.4507 29.3327 26.0107 28.6167 27.1494C28.2443 27.7431 27.743 28.2453 27.15 28.6187C26.0087 29.3334 24.45 29.3334 21.3327 29.3334H10.666C7.54735 29.3334 5.98868 29.3334 4.85002 28.6174C4.25632 28.2451 3.75412 27.7438 3.38068 27.1507C2.66602 26.0094 2.66602 24.4507 2.66602 21.3334Z" stroke="#090909" stroke-width="2.5" stroke-linecap="round" stroke-linejoin="round"/>
<path d="M20 18.6667C20 19.374 19.719 20.0523 19.219 20.5524C18.7189 21.0525 18.0406 21.3334 17.3333 21.3334H14.6667C13.9594 21.3334 13.2811 21.0525 12.781 20.5524C12.281 20.0523 12 19.374 12 18.6667" stroke="#090909" stroke-width="2.5" stroke-linecap="round" stroke-linejoin="round"/>
</svg>
