<svg width="33" height="33" viewBox="0 0 33 33" fill="none" xmlns="http://www.w3.org/2000/svg">
<path d="M28.75 6.5H4.75C4.21957 6.5 3.71086 6.71071 3.33579 7.08579C2.96071 7.46086 2.75 7.96957 2.75 8.5V11.5C2.75 12.0304 2.96071 12.5391 3.33579 12.9142C3.71086 13.2893 4.21957 13.5 4.75 13.5V24.5C4.75 25.0304 4.96071 25.5391 5.33579 25.9142C5.71086 26.2893 6.21957 26.5 6.75 26.5H26.75C27.2804 26.5 27.7891 26.2893 28.1642 25.9142C28.5393 25.5391 28.75 25.0304 28.75 24.5V13.5C29.2804 13.5 29.7891 13.2893 30.1642 12.9142C30.5393 12.5391 30.75 12.0304 30.75 11.5V8.5C30.75 7.96957 30.5393 7.46086 30.1642 7.08579C29.7891 6.71071 29.2804 6.5 28.75 6.5ZM26.75 24.5H6.75V13.5H26.75V24.5ZM28.75 11.5H4.75V8.5H28.75V11.5ZM12.75 17.5C12.75 17.2348 12.8554 16.9804 13.0429 16.7929C13.2304 16.6054 13.4848 16.5 13.75 16.5H19.75C20.0152 16.5 20.2696 16.6054 20.4571 16.7929C20.6446 16.9804 20.75 17.2348 20.75 17.5C20.75 17.7652 20.6446 18.0196 20.4571 18.2071C20.2696 18.3946 20.0152 18.5 19.75 18.5H13.75C13.4848 18.5 13.2304 18.3946 13.0429 18.2071C12.8554 18.0196 12.75 17.7652 12.75 17.5Z" fill="#B2B2B2"/>
</svg>
