<svg width="33" height="32" viewBox="0 0 33 32" fill="none" xmlns="http://www.w3.org/2000/svg">
<path d="M27.5 4V24C27.5 24.2652 27.3946 24.5196 27.2071 24.7071C27.0196 24.8946 26.7652 25 26.5 25H9.5C8.96957 25 8.46086 25.2107 8.08579 25.5858C7.71071 25.9609 7.5 26.4696 7.5 27H24.5C24.7652 27 25.0196 27.1054 25.2071 27.2929C25.3946 27.4804 25.5 27.7348 25.5 28C25.5 28.2652 25.3946 28.5196 25.2071 28.7071C25.0196 28.8946 24.7652 29 24.5 29H6.5C6.23478 29 5.98043 28.8946 5.79289 28.7071C5.60536 28.5196 5.5 28.2652 5.5 28V7C5.5 5.93913 5.92143 4.92172 6.67157 4.17157C7.42172 3.42143 8.43913 3 9.5 3H26.5C26.7652 3 27.0196 3.10536 27.2071 3.29289C27.3946 3.48043 27.5 3.73478 27.5 4Z" fill="#FAF9F6"/>
</svg>
