<svg width="32" height="32" viewBox="0 0 32 32" fill="none" xmlns="http://www.w3.org/2000/svg">
<path d="M27.3327 22.5721V13.3334C27.3327 8.30542 27.3327 5.79075 25.77 4.22941C24.2073 2.66808 21.694 2.66675 16.666 2.66675H15.3327C10.3047 2.66675 7.79002 2.66675 6.22868 4.22941C4.66735 5.79208 4.66602 8.30542 4.66602 13.3334V26.0001" stroke="#090909" stroke-width="2.5" stroke-linecap="round" stroke-linejoin="round"/>
<path d="M27.3327 22.6667H7.99935C7.11529 22.6667 6.26745 23.0179 5.64233 23.6431C5.01721 24.2682 4.66602 25.116 4.66602 26.0001C4.66602 26.8841 5.01721 27.732 5.64233 28.3571C6.26745 28.9822 7.11529 29.3334 7.99935 29.3334H27.3327" stroke="#090909" stroke-width="2.5" stroke-linecap="round" stroke-linejoin="round"/>
<path d="M27.3333 29.3335C26.4493 29.3335 25.6014 28.9823 24.9763 28.3572C24.3512 27.7321 24 26.8842 24 26.0002C24 25.1161 24.3512 24.2683 24.9763 23.6431C25.6014 23.018 26.4493 22.6668 27.3333 22.6668M20 9.3335H12M16 14.6668H12" stroke="#090909" stroke-width="2.5" stroke-linecap="round" stroke-linejoin="round"/>
</svg>
