<svg width="72" height="72" viewBox="0 0 72 72" fill="none" xmlns="http://www.w3.org/2000/svg">
<path d="M51 18C58.038 18 60.054 18 62.478 19.86C63.1023 20.339 63.661 20.8977 64.14 21.522C66 23.946 66 27.462 66 34.5V48C66 56.484 66 60.729 63.363 63.363C60.729 66 56.484 66 48 66H24C15.516 66 11.271 66 8.637 63.363C6 60.729 6 56.484 6 48V34.5C6 27.462 6 23.946 7.86 21.522C8.33897 20.8977 8.89773 20.339 9.522 19.86C11.946 18 13.962 18 21 18" stroke="#FF9800" stroke-width="4.5" stroke-linecap="round" stroke-linejoin="round"/>
<path d="M51 21L48.342 14.355C47.196 11.49 46.197 8.238 43.251 6.78C41.676 6 39.786 6 36 6C32.214 6 30.324 6 28.749 6.78C25.803 8.238 24.804 11.49 23.658 14.355L21 21M36 18H36.027M46.5 42C46.5 43.3789 46.2284 44.7443 45.7007 46.0182C45.1731 47.2921 44.3996 48.4496 43.4246 49.4246C42.4496 50.3996 41.2921 51.1731 40.0182 51.7007C38.7443 52.2284 37.3789 52.5 36 52.5C34.6211 52.5 33.2557 52.2284 31.9818 51.7007C30.7079 51.1731 29.5504 50.3996 28.5754 49.4246C27.6004 48.4496 26.8269 47.2921 26.2993 46.0182C25.7716 44.7443 25.5 43.3789 25.5 42C25.5 39.2152 26.6062 36.5445 28.5754 34.5754C30.5445 32.6062 33.2152 31.5 36 31.5C38.7848 31.5 41.4555 32.6062 43.4246 34.5754C45.3938 36.5445 46.5 39.2152 46.5 42Z" stroke="#FF9800" stroke-width="4.5" stroke-linecap="round" stroke-linejoin="round"/>
</svg>
