<svg width="14" height="15" viewBox="0 0 14 15" fill="none" xmlns="http://www.w3.org/2000/svg">
<path d="M4.66602 8.37492H9.33268M4.66602 5.45825H6.99935M3.5571 11.5833C2.79915 11.5086 2.23002 11.2807 1.84968 10.8996C1.16602 10.2165 1.16602 9.11634 1.16602 6.91659V6.62492C1.16602 4.42517 1.16602 3.325 1.84968 2.64192C2.53335 1.95884 3.63293 1.95825 5.83268 1.95825H8.16602C10.3658 1.95825 11.4659 1.95825 12.149 2.64192C12.8321 3.32559 12.8327 4.42517 12.8327 6.62492V6.91659C12.8327 9.11634 12.8327 10.2165 12.149 10.8996C11.4653 11.5827 10.3658 11.5833 8.16602 11.5833C7.83935 11.5903 7.5786 11.6153 7.3231 11.6737C6.62368 11.8347 5.97618 12.1928 5.33685 12.5043C4.4251 12.9488 3.96952 13.1711 3.68368 12.9628C3.13652 12.5557 3.67143 11.2928 3.79102 10.7083" stroke="#63768D" stroke-linecap="round" stroke-linejoin="round"/>
</svg>
