<svg width="32" height="33" viewBox="0 0 32 33" fill="none" xmlns="http://www.w3.org/2000/svg">
<path d="M27.3538 13.4713L17.3538 4.03632C17.3489 4.03206 17.3443 4.02746 17.34 4.02257C16.9718 3.68774 16.492 3.5022 15.9944 3.5022C15.4967 3.5022 15.0169 3.68774 14.6488 4.02257L14.635 4.03632L4.64625 13.4713C4.4425 13.6587 4.27985 13.8863 4.16861 14.1398C4.05737 14.3932 3.99996 14.667 4 14.9438V26.5001C4 27.0305 4.21071 27.5392 4.58579 27.9143C4.96086 28.2894 5.46957 28.5001 6 28.5001H12C12.5304 28.5001 13.0391 28.2894 13.4142 27.9143C13.7893 27.5392 14 27.0305 14 26.5001V20.5001H18V26.5001C18 27.0305 18.2107 27.5392 18.5858 27.9143C18.9609 28.2894 19.4696 28.5001 20 28.5001H26C26.5304 28.5001 27.0391 28.2894 27.4142 27.9143C27.7893 27.5392 28 27.0305 28 26.5001V14.9438C28 14.667 27.9426 14.3932 27.8314 14.1398C27.7201 13.8863 27.5575 13.6587 27.3538 13.4713ZM26 26.5001H20V20.5001C20 19.9696 19.7893 19.4609 19.4142 19.0859C19.0391 18.7108 18.5304 18.5001 18 18.5001H14C13.4696 18.5001 12.9609 18.7108 12.5858 19.0859C12.2107 19.4609 12 19.9696 12 20.5001V26.5001H6V14.9438L6.01375 14.9313L16 5.50007L25.9875 14.9288L26.0012 14.9413L26 26.5001Z" fill="#B2B2B2"/>
</svg>
