<svg width="32" height="32" viewBox="0 0 32 32" fill="none" xmlns="http://www.w3.org/2000/svg">
<path d="M12.0003 29.3335L11.6656 24.6548C11.6225 24.0593 11.7026 23.4613 11.9009 22.8981C12.0992 22.335 12.4114 21.8187 12.8181 21.3815C13.2247 20.9444 13.7171 20.5957 14.2645 20.3573C14.8119 20.1189 15.4026 19.9958 15.9996 19.9958C16.5967 19.9958 17.1873 20.1189 17.7347 20.3573C18.2821 20.5957 18.7745 20.9444 19.1812 21.3815C19.5879 21.8187 19.9001 22.335 20.0984 22.8981C20.2966 23.4613 20.3767 24.0593 20.3336 24.6548L20.0003 29.3335" stroke="#090909" stroke-width="2.5" stroke-linecap="round" stroke-linejoin="round"/>
<path d="M3.13541 17.6187C2.66341 14.5547 2.42874 13.0241 3.00741 11.6654C3.58607 10.3067 4.87141 9.37875 7.44074 7.52141L9.36074 6.13341C12.5567 3.82275 14.1554 2.66675 16.0007 2.66675C17.8434 2.66675 19.4407 3.82275 22.6381 6.13341L24.5581 7.52141C27.1274 9.37875 28.4114 10.3081 28.9914 11.6654C29.5701 13.0241 29.3354 14.5547 28.8647 17.6174L28.4634 20.2307C27.7967 24.5721 27.4621 26.7427 25.9047 28.0387C24.3474 29.3347 22.0714 29.3334 17.5194 29.3334H14.4794C9.92607 29.3334 7.65007 29.3334 6.09274 28.0387C4.53541 26.7427 4.20207 24.5721 3.53541 20.2294L3.13541 17.6187Z" stroke="#090909" stroke-width="2.5" stroke-linecap="round" stroke-linejoin="round"/>
</svg>
