<svg width="32" height="32" viewBox="0 0 32 32" fill="none" xmlns="http://www.w3.org/2000/svg">
<path d="M11.3343 19.3333H20.6676M11.3343 12.6667H16.0009M18.8943 27.8533C24.4729 27.484 28.9156 22.9773 29.2809 17.32C29.3516 16.2133 29.3516 15.0667 29.2809 13.96C28.9156 8.304 24.4729 3.8 18.8943 3.428C16.9675 3.30102 15.0344 3.30102 13.1076 3.428C7.52894 3.79866 3.08627 8.304 2.72094 13.9613C2.65031 15.0802 2.65031 16.2024 2.72094 17.3213C2.85427 19.3813 3.76494 21.2893 4.83827 22.9C5.46094 24.0267 5.05027 25.4333 4.40094 26.664C3.93427 27.5507 3.69961 27.9933 3.88761 28.3133C4.07427 28.6333 4.49427 28.644 5.33294 28.664C6.99294 28.704 8.11161 28.2347 8.99961 27.58C9.50227 27.208 9.75427 27.0227 9.92761 27.0013C10.1009 26.98 10.4436 27.1213 11.1263 27.4013C11.7396 27.6547 12.4529 27.8107 13.1063 27.8547C15.0063 27.98 16.9916 27.98 18.8956 27.8547" stroke="#FF9800" stroke-width="2.5" stroke-linecap="round" stroke-linejoin="round"/>
</svg>
