<svg width="33" height="33" viewBox="0 0 33 33" fill="none" xmlns="http://www.w3.org/2000/svg">
<path d="M30.8504 19.2999C30.7453 19.3787 30.6258 19.436 30.4986 19.4686C30.3713 19.5012 30.239 19.5084 30.109 19.4898C29.979 19.4713 29.8539 19.4273 29.7409 19.3604C29.6279 19.2935 29.5292 19.205 29.4504 19.0999C28.8476 18.2897 28.0631 17.6324 27.1599 17.1808C26.2568 16.7292 25.2602 16.496 24.2504 16.4999C24.0537 16.4999 23.8615 16.4419 23.6976 16.3332C23.5337 16.2244 23.4056 16.0698 23.3291 15.8886C23.2772 15.7656 23.2505 15.6334 23.2505 15.4999C23.2505 15.3664 23.2772 15.2342 23.3291 15.1111C23.4056 14.93 23.5337 14.7754 23.6976 14.6666C23.8615 14.5579 24.0537 14.4999 24.2504 14.4999C24.8115 14.4998 25.3613 14.3424 25.8374 14.0456C26.3135 13.7487 26.6969 13.3243 26.9438 12.8204C27.1908 12.3166 27.2916 11.7537 27.2346 11.1955C27.1777 10.6373 26.9654 10.1062 26.6217 9.66268C26.2781 9.21911 25.817 8.8808 25.2908 8.68617C24.7645 8.49154 24.1942 8.44839 23.6447 8.56163C23.0951 8.67486 22.5884 8.93994 22.1819 9.32676C21.7755 9.71358 21.4857 10.2066 21.3454 10.7499C21.3125 10.8771 21.255 10.9966 21.176 11.1016C21.097 11.2066 20.998 11.2949 20.8849 11.3617C20.7717 11.4284 20.6465 11.4722 20.5164 11.4906C20.3863 11.5089 20.2538 11.5015 20.1266 11.4686C19.9994 11.4358 19.8799 11.3783 19.7749 11.2992C19.67 11.2202 19.5816 11.1213 19.5148 11.0081C19.4481 10.895 19.4043 10.7697 19.386 10.6397C19.3676 10.5096 19.375 10.3771 19.4079 10.2499C19.6026 9.49654 19.9704 8.79902 20.4821 8.21284C20.9938 7.62665 21.6353 7.16799 22.3554 6.87334C23.0756 6.57868 23.8546 6.45618 24.6304 6.51556C25.4063 6.57495 26.1575 6.81459 26.8245 7.21541C27.4914 7.61624 28.0556 8.16719 28.4721 8.82442C28.8886 9.48165 29.146 10.227 29.2238 11.0012C29.3016 11.7755 29.1976 12.5571 28.9201 13.2841C28.6426 14.011 28.1993 14.6632 27.6254 15.1886C28.9851 15.7774 30.1672 16.7117 31.0541 17.8986C31.1329 18.004 31.1902 18.1238 31.2226 18.2513C31.255 18.3788 31.2619 18.5114 31.243 18.6415C31.2241 18.7717 31.1796 18.8969 31.1123 19.0098C31.0449 19.1228 30.9559 19.2214 30.8504 19.2999ZM24.1154 26.9999C24.1877 27.1137 24.2363 27.241 24.2582 27.3741C24.2801 27.5072 24.2748 27.6433 24.2428 27.7743C24.2107 27.9053 24.1524 28.0284 24.0715 28.1363C23.9906 28.2442 23.8887 28.3346 23.7719 28.4021C23.6551 28.4696 23.5259 28.5128 23.392 28.5291C23.2582 28.5453 23.1224 28.5343 22.9928 28.4968C22.8633 28.4592 22.7427 28.3958 22.6383 28.3104C22.5339 28.225 22.4479 28.1194 22.3854 27.9999C21.7554 26.9332 20.8583 26.0492 19.7824 25.4352C18.7065 24.8211 17.4892 24.4981 16.2504 24.4981C15.0116 24.4981 13.7942 24.8211 12.7183 25.4352C11.6425 26.0492 10.7453 26.9332 10.1154 27.9999C10.0529 28.1194 9.96682 28.225 9.86243 28.3104C9.75803 28.3958 9.63744 28.4592 9.50792 28.4968C9.37839 28.5343 9.2426 28.5453 9.10871 28.5291C8.97483 28.5128 8.84562 28.4696 8.72885 28.4021C8.61209 28.3346 8.51018 28.2442 8.42926 28.1363C8.34835 28.0284 8.2901 27.9053 8.25801 27.7743C8.22592 27.6433 8.22066 27.5072 8.24255 27.3741C8.26444 27.241 8.31303 27.1137 8.38538 26.9999C9.35488 25.3341 10.8331 24.0232 12.6029 23.2599C11.607 22.4974 10.8752 21.4421 10.5101 20.2422C10.1451 19.0423 10.1653 17.7581 10.5678 16.5703C10.9703 15.3824 11.7349 14.3506 12.7542 13.6197C13.7735 12.8889 14.9962 12.4959 16.2504 12.4959C17.5046 12.4959 18.7273 12.8889 19.7465 13.6197C20.7658 14.3506 21.5305 15.3824 21.933 16.5703C22.3355 17.7581 22.3557 19.0423 21.9906 20.2422C21.6256 21.4421 20.8937 22.4974 19.8979 23.2599C21.6676 24.0232 23.1459 25.3341 24.1154 26.9999ZM16.2504 22.4999C17.0415 22.4999 17.8149 22.2653 18.4727 21.8258C19.1305 21.3863 19.6431 20.7615 19.9459 20.0306C20.2486 19.2997 20.3279 18.4955 20.1735 17.7195C20.0192 16.9436 19.6382 16.2309 19.0788 15.6715C18.5194 15.1121 17.8067 14.7311 17.0307 14.5768C16.2548 14.4224 15.4506 14.5016 14.7196 14.8044C13.9887 15.1071 13.364 15.6198 12.9245 16.2776C12.485 16.9354 12.2504 17.7088 12.2504 18.4999C12.2504 19.5608 12.6718 20.5782 13.422 21.3283C14.1721 22.0785 15.1895 22.4999 16.2504 22.4999ZM9.25038 15.4999C9.25038 15.2347 9.14502 14.9803 8.95749 14.7928C8.76995 14.6053 8.5156 14.4999 8.25038 14.4999C7.68929 14.4998 7.13946 14.3424 6.66334 14.0456C6.18722 13.7487 5.8039 13.3243 5.55692 12.8204C5.30994 12.3166 5.20919 11.7537 5.26613 11.1955C5.32306 10.6373 5.5354 10.1062 5.87901 9.66268C6.22263 9.21911 6.68375 8.8808 7.21 8.68617C7.73626 8.49154 8.30654 8.44839 8.85609 8.56163C9.40563 8.67486 9.91241 8.93994 10.3188 9.32676C10.7253 9.71358 11.0151 10.2066 11.1554 10.7499C11.2217 11.0068 11.3873 11.2269 11.6159 11.3617C11.8445 11.4965 12.1172 11.535 12.3741 11.4686C12.6311 11.4023 12.8511 11.2367 12.9859 11.0081C13.1207 10.7796 13.1592 10.5068 13.0929 10.2499C12.8982 9.49654 12.5303 8.79902 12.0186 8.21284C11.5069 7.62665 10.8655 7.16799 10.1453 6.87334C9.42516 6.57868 8.64617 6.45618 7.87033 6.51556C7.09449 6.57495 6.34321 6.81459 5.67629 7.21541C5.00936 7.61624 4.44519 8.16719 4.02866 8.82442C3.61212 9.48165 3.35473 10.227 3.27697 11.0012C3.1992 11.7755 3.30319 12.5571 3.58068 13.2841C3.85817 14.011 4.3015 14.6632 4.87538 15.1886C3.51698 15.778 2.33627 16.7122 1.45038 17.8986C1.29108 18.1108 1.2226 18.3776 1.25999 18.6403C1.29738 18.9029 1.43758 19.14 1.64975 19.2993C1.86193 19.4586 2.12869 19.5271 2.39136 19.4897C2.65403 19.4523 2.89108 19.3121 3.05038 19.0999C3.65311 18.2897 4.43765 17.6324 5.34083 17.1808C6.24401 16.7292 7.2406 16.496 8.25038 16.4999C8.5156 16.4999 8.76995 16.3945 8.95749 16.207C9.14502 16.0195 9.25038 15.7651 9.25038 15.4999Z" fill="#B2B2B2"/>
</svg>
