<svg width="33" height="33" viewBox="0 0 33 33" fill="none" xmlns="http://www.w3.org/2000/svg">
<path d="M29.3658 27C27.4621 23.7087 24.5283 21.3487 21.1046 20.23C22.7981 19.2218 24.1139 17.6856 24.8498 15.8572C25.5858 14.0289 25.7012 12.0095 25.1784 10.1092C24.6556 8.20887 23.5234 6.53272 21.9558 5.33814C20.3882 4.14355 18.4717 3.49658 16.5008 3.49658C14.5299 3.49658 12.6135 4.14355 11.0459 5.33814C9.47823 6.53272 8.34607 8.20887 7.82325 10.1092C7.30043 12.0095 7.41586 14.0289 8.15181 15.8572C8.88776 17.6856 10.2035 19.2218 11.8971 20.23C8.47333 21.3475 5.53958 23.7075 3.63583 27C3.56601 27.1138 3.51971 27.2405 3.49964 27.3725C3.47957 27.5045 3.48615 27.6392 3.51898 27.7687C3.55182 27.8981 3.61024 28.0197 3.69082 28.1262C3.77139 28.2326 3.87247 28.3219 3.98811 28.3887C4.10374 28.4555 4.23158 28.4985 4.36409 28.515C4.49659 28.5316 4.63107 28.5215 4.7596 28.4853C4.88813 28.449 5.0081 28.3874 5.11244 28.3041C5.21677 28.2207 5.30335 28.1173 5.36708 28C7.72208 23.93 11.8846 21.5 16.5008 21.5C21.1171 21.5 25.2796 23.93 27.6346 28C27.6983 28.1173 27.7849 28.2207 27.8892 28.3041C27.9936 28.3874 28.1135 28.449 28.242 28.4853C28.3706 28.5215 28.5051 28.5316 28.6376 28.515C28.7701 28.4985 28.8979 28.4555 29.0135 28.3887C29.1292 28.3219 29.2303 28.2326 29.3108 28.1262C29.3914 28.0197 29.4498 27.8981 29.4827 27.7687C29.5155 27.6392 29.5221 27.5045 29.502 27.3725C29.4819 27.2405 29.4356 27.1138 29.3658 27ZM9.50083 12.5C9.50083 11.1155 9.91137 9.76214 10.6805 8.61099C11.4497 7.45985 12.543 6.56264 13.822 6.03283C15.1011 5.50301 16.5086 5.36439 17.8665 5.63449C19.2243 5.90458 20.4716 6.57127 21.4506 7.55023C22.4295 8.5292 23.0962 9.77648 23.3663 11.1344C23.6364 12.4922 23.4978 13.8997 22.968 15.1788C22.4382 16.4578 21.541 17.5511 20.3898 18.3203C19.2387 19.0894 17.8853 19.5 16.5008 19.5C14.6449 19.498 12.8656 18.7599 11.5533 17.4475C10.2409 16.1352 9.50281 14.3559 9.50083 12.5Z" fill="#B2B2B2"/>
</svg>
