<svg width="32" height="32" viewBox="0 0 32 32" fill="none" xmlns="http://www.w3.org/2000/svg">
<path d="M8.77062 20.6427C6.88395 21.7654 1.93728 24.0587 4.95062 26.9294C6.42128 28.3307 8.05995 29.3334 10.1199 29.3334H21.8773C23.9386 29.3334 25.5773 28.3307 27.0479 26.9294C30.0613 24.0587 25.1146 21.7654 23.2279 20.6427C21.0383 19.3492 18.5418 18.6669 15.9986 18.6669C13.4555 18.6669 10.9602 19.3492 8.77062 20.6427ZM21.9999 8.66675C21.9999 10.258 21.3678 11.7842 20.2426 12.9094C19.1174 14.0346 17.5912 14.6667 15.9999 14.6667C14.4087 14.6667 12.8825 14.0346 11.7573 12.9094C10.6321 11.7842 9.99995 10.258 9.99995 8.66675C9.99995 7.07545 10.6321 5.54933 11.7573 4.42411C12.8825 3.29889 14.4087 2.66675 15.9999 2.66675C17.5912 2.66675 19.1174 3.29889 20.2426 4.42411C21.3678 5.54933 21.9999 7.07545 21.9999 8.66675Z" stroke="#090909" stroke-width="2.5" stroke-linecap="round" stroke-linejoin="round"/>
</svg>
