<svg width="32" height="32" viewBox="0 0 32 32" fill="none" xmlns="http://www.w3.org/2000/svg">
<path d="M27.699 23.9999C28.699 23.9999 29.4924 23.3719 30.2057 22.4933C31.667 20.6933 29.2684 19.2533 28.3537 18.5506C27.4244 17.8346 26.3857 17.4279 25.3337 17.3333M24.0004 14.6666C24.8844 14.6666 25.7323 14.3154 26.3574 13.6903C26.9825 13.0652 27.3337 12.2173 27.3337 11.3333C27.3337 10.4492 26.9825 9.60135 26.3574 8.97623C25.7323 8.35111 24.8844 7.99992 24.0004 7.99992M4.30169 23.9999C3.30169 23.9999 2.50836 23.3719 1.79503 22.4933C0.333692 20.6933 2.73236 19.2533 3.64703 18.5506C4.57636 17.8346 5.61369 17.4266 6.66703 17.3333M7.33369 14.6666C6.44964 14.6666 5.60179 14.3154 4.97667 13.6903C4.35155 13.0652 4.00036 12.2173 4.00036 11.3333C4.00036 10.4492 4.35155 9.60135 4.97667 8.97623C5.60179 8.35111 6.44964 7.99992 7.33369 7.99992M10.779 20.1479C9.41636 20.9906 5.84436 22.7106 8.01903 24.8626C9.08436 25.9146 10.267 26.6666 11.7564 26.6666H20.247C21.7364 26.6666 22.919 25.9146 23.9817 24.8626C26.1577 22.7106 22.5857 20.9906 21.223 20.1479C19.6535 19.1799 17.8457 18.6673 16.0017 18.6673C14.1576 18.6673 12.3499 19.1799 10.7804 20.1479M20.667 9.99992C20.667 10.6128 20.5463 11.2196 20.3118 11.7858C20.0773 12.352 19.7335 12.8664 19.3002 13.2998C18.8669 13.7331 18.3524 14.0768 17.7862 14.3114C17.22 14.5459 16.6132 14.6666 16.0004 14.6666C15.3875 14.6666 14.7807 14.5459 14.2145 14.3114C13.6483 14.0768 13.1339 13.7331 12.7005 13.2998C12.2672 12.8664 11.9234 12.352 11.6889 11.7858C11.4544 11.2196 11.3337 10.6128 11.3337 9.99992C11.3337 8.76224 11.8254 7.57526 12.7005 6.70009C13.5757 5.82492 14.7627 5.33325 16.0004 5.33325C17.238 5.33325 18.425 5.82492 19.3002 6.70009C20.1754 7.57526 20.667 8.76224 20.667 9.99992Z" stroke="#090909" stroke-width="2.5" stroke-linecap="round" stroke-linejoin="round"/>
</svg>
